<?xml version="1.0" standalone="no"?>
<!DOCTYPE svg PUBLIC "-//W3C//DTD SVG 20010904//EN"
 "http://www.w3.org/TR/2001/REC-SVG-20010904/DTD/svg10.dtd">
<svg version="1.0" xmlns="http://www.w3.org/2000/svg"
 width="4552.000000pt" height="4552.000000pt" viewBox="0 0 4552.000000 4552.000000"
 preserveAspectRatio="xMidYMid meet">
<metadata>
Created by potrace 1.11, written by Peter Selinger 2001-2013
</metadata>
<g transform="translate(0.000000,4552.000000) scale(0.100000,-0.100000)"
fill="#000000" stroke="none">
<path d="M890 32155 l0 -4145 1028 2 1027 3 3 1533 2 1532 565 0 565 0 0
-1535 0 -1535 1033 2 1032 3 3 4143 2 4142 -1035 0 -1035 0 0 -1410 0 -1410
-565 0 -565 0 0 1410 0 1410 -1030 0 -1030 0 0 -4145z m1210 1722 c0 -783 2
-1426 4 -1428 2 -2 641 -3 1418 -1 l1414 2 0 1423 0 1422 122 3 122 3 0 -3146
0 -3145 -122 0 -123 0 0 1572 0 1573 -1415 0 -1415 0 -3 -1572 -2 -1573 -120
0 -120 0 0 3145 0 3145 120 0 120 0 0 -1423z"/>
<path d="M6279 36278 c10 -24 189 -450 416 -988 76 -179 154 -365 175 -415 21
-49 100 -236 175 -415 76 -179 154 -365 175 -415 21 -49 98 -234 173 -410 74
-176 214 -507 310 -735 96 -228 219 -518 272 -645 53 -126 126 -300 162 -385
36 -85 78 -185 94 -222 l29 -66 0 -1786 0 -1786 1025 0 1025 0 0 1780 0 1779
44 103 c24 57 55 130 69 163 13 33 104 249 202 480 98 231 194 461 215 510 21
50 99 236 175 415 76 179 154 366 175 415 21 50 117 279 215 510 98 231 194
461 215 510 21 50 81 194 135 320 53 127 105 253 115 280 10 28 110 268 223
535 l205 485 -1136 3 c-625 1 -1139 -1 -1143 -5 -4 -5 -168 -394 -364 -865
-197 -472 -361 -858 -364 -858 -3 0 -170 390 -371 865 l-364 865 -1143 0
-1143 0 9 -22z m2033 -1598 c142 -338 274 -651 292 -695 65 -155 116 -275 371
-880 142 -335 269 -637 282 -670 14 -33 28 -63 32 -67 3 -4 69 142 145 325 77
183 192 458 256 612 65 154 175 417 245 585 172 412 338 809 476 1137 l114
273 143 0 c78 0 142 -2 142 -5 0 -4 -318 -758 -1106 -2627 l-294 -696 0 -1481
0 -1481 -125 0 -125 0 0 1485 0 1486 -681 1627 c-375 895 -688 1642 -696 1660
l-13 33 141 -3 142 -3 259 -615z"/>
<path d="M12446 34948 c-4 -744 -6 -2608 -4 -4143 l3 -2790 1028 -3 1027 -2 0
990 0 990 113 0 c125 0 351 20 500 44 539 87 961 263 1326 554 362 287 642
707 812 1214 38 113 91 319 103 398 65 422 78 578 78 945 1 533 -56 945 -182
1325 -182 551 -471 973 -875 1275 -392 293 -815 449 -1445 532 -108 14 -284
17 -1301 20 l-1177 4 -6 -1353z m2234 351 c307 -22 565 -88 815 -209 584 -284
921 -829 995 -1610 12 -127 15 -523 5 -628 -11 -112 -54 -361 -80 -462 -176
-695 -626 -1155 -1292 -1324 -265 -67 -287 -69 -903 -75 l-565 -6 0 -985 0
-985 -122 -3 -123 -3 0 3151 0 3151 578 -2 c317 -1 629 -5 692 -10z"/>
<path d="M13659 34639 c-5 -1208 -4 -3341 2 -3350 4 -7 182 -9 555 -7 519 4
556 6 674 27 288 53 533 150 715 286 199 147 319 295 435 538 141 291 186 524
189 976 3 463 -48 744 -190 1040 -74 156 -148 267 -247 372 -248 264 -548 404
-1007 470 -48 6 -291 13 -602 16 l-523 5 -1 -373z m1176 -604 c217 -60 355
-195 437 -427 55 -157 78 -388 58 -611 -22 -262 -97 -456 -224 -583 -121 -121
-253 -171 -478 -181 l-128 -6 -1 794 c-1 437 -3 850 -4 918 l-2 123 141 -5
c84 -3 165 -12 201 -22z"/>
<path d="M17929 36288 c0 -7 -2 -1873 -5 -4145 l-5 -4133 1926 0 1925 0 0
1090 0 1090 -893 0 -894 0 -7 470 c-4 258 -4 474 -1 480 4 7 298 10 851 10
l844 0 0 1030 0 1030 -850 0 -850 0 2 458 3 457 863 3 862 2 0 1085 0 1085
-1885 0 c-1501 0 -1885 -3 -1886 -12z m3131 -1128 l0 -150 -960 0 -960 0 0
-1340 0 -1340 910 0 910 0 0 -150 0 -150 -908 0 -909 0 -6 -607 c-4 -335 -7
-949 -7 -1365 l0 -758 960 0 960 0 0 -145 0 -145 -1080 0 -1080 0 -1 1188 c-4
4373 -4 5088 -1 5100 3 9 230 12 1088 12 l1084 0 0 -150z"/>
<path d="M22350 32156 l0 -4146 1025 0 1025 0 2 1047 3 1047 192 -419 c654
-1430 755 -1651 762 -1658 4 -4 545 -6 1203 -5 l1196 3 -598 1360 -598 1360
77 81 c258 272 417 537 570 946 132 355 191 653 209 1045 27 601 -40 1151
-196 1598 -226 653 -564 1106 -1078 1445 -183 122 -531 280 -699 319 -27 6
-95 22 -150 35 -102 25 -223 46 -375 67 -60 9 -454 13 -1327 16 l-1243 4 0
-4145z m2300 3135 c243 -33 502 -105 690 -193 661 -309 1072 -972 1119 -1800
45 -810 -149 -1407 -601 -1844 -137 -133 -258 -220 -429 -309 l-97 -50 479
-1039 c263 -572 479 -1041 479 -1043 0 -2 -67 -3 -148 -3 l-148 0 -454 988
c-250 543 -455 989 -457 991 -2 3 -45 -5 -96 -17 -266 -63 -277 -64 -874 -69
l-553 -5 0 -944 0 -944 -125 0 -125 0 0 3143 c0 1729 3 3147 8 3151 11 12
1234 0 1332 -13z"/>
<path d="M23560 33105 l0 -1906 548 4 c441 3 564 7 637 20 313 55 524 133 733
270 414 272 649 687 717 1267 19 163 19 507 0 672 -31 270 -86 461 -190 673
-247 498 -690 795 -1320 882 -81 11 -242 16 -617 20 l-508 5 0 -1907z m1165
936 c281 -58 499 -229 586 -460 80 -213 90 -567 23 -798 -62 -216 -171 -349
-367 -450 -135 -70 -265 -101 -447 -105 l-115 -3 -3 918 -2 917 117 0 c76 0
151 -7 208 -19z"/>
<path d="M27940 32160 l0 -4140 1025 0 1025 0 0 1565 0 1566 850 -3 850 -3 0
1033 0 1032 -850 0 -850 0 0 455 0 455 865 0 865 0 0 1090 0 1090 -1890 0
-1890 0 0 -4140z m3130 2995 l0 -145 -960 0 -960 0 0 -1340 0 -1340 323 0
c178 0 588 -3 910 -7 l587 -6 0 -144 0 -143 -910 0 -910 0 0 -1510 0 -1510
-125 0 -125 0 0 1688 c0 929 3 2344 7 3145 l6 1457 1079 0 1078 0 0 -145z"/>
<path d="M32233 32163 c4 -2275 8 -4137 9 -4138 2 -2 490 -5 1086 -7 l1082 -5
0 4144 0 4143 -1092 0 -1091 0 6 -4137z m1207 99 c0 -1672 3 -3087 7 -3145 l6
-107 -126 0 -127 0 0 3145 0 3145 120 0 120 0 0 -3038z"/>
<path d="M35082 32158 l3 -4143 1007 -3 1008 -2 2 1580 3 1580 361 -652 c199
-359 592 -1070 874 -1580 l514 -928 848 0 848 0 0 4145 0 4145 -1010 0 -1010
0 -2 -1582 -3 -1581 -204 369 c-113 203 -293 529 -401 724 -672 1211 -920
1660 -1026 1852 l-119 217 -848 1 -847 0 2 -4142z m1543 2427 c216 -390 744
-1347 1175 -2125 430 -778 965 -1747 1188 -2152 224 -406 410 -737 415 -738 4
0 7 1289 7 2865 l0 2865 120 0 120 0 0 -3145 0 -3145 -122 0 -123 0 -315 572
c-508 921 -482 874 -1140 2063 -189 341 -389 703 -445 805 -56 102 -315 570
-575 1040 -260 470 -523 946 -584 1057 l-111 202 -3 -2870 -2 -2869 -125 0
-125 0 0 3145 0 3146 126 -3 126 -3 393 -710z"/>
<path d="M41220 32155 l0 -4145 1925 0 1925 0 0 1090 0 1090 -900 0 -900 0 0
475 0 475 850 0 850 0 0 1035 0 1035 -850 0 -850 0 0 455 0 455 865 0 865 0 0
1090 0 1090 -1890 0 -1890 0 0 -4145z m3130 3000 l0 -145 -960 0 -960 0 0
-1345 0 -1345 910 0 910 0 0 -145 0 -145 -910 0 -910 0 0 -1365 0 -1365 960 0
960 0 0 -145 0 -145 -1083 0 -1082 0 0 3145 0 3145 1082 0 1083 0 0 -145z"/>
</g>
</svg>
